<svg width="700" height="678" viewBox="0 0 700 678" fill="none" xmlns="http://www.w3.org/2000/svg">
<path d="M493.42 375.073C510.076 346.263 540.83 328.519 574.109 328.519H576.625C627.128 328.519 670.049 365.428 677.612 415.361L539.391 474.974L475.48 406.103L493.42 375.073Z" fill="url(#paint0_linear_1458_12537)"/>
<path d="M64.2069 369.363C42.9282 372.404 22.9678 357.593 22.47 336.103C20.9385 270.002 39.4527 204.642 76.0464 148.847C119.79 82.1495 186.364 33.7015 263.282 12.5893C340.2 -8.52289 422.178 -0.84896 493.841 34.1719C553.79 63.4683 603.076 110.219 635.504 167.84C646.046 186.572 636.444 209.498 616.594 217.746C596.744 225.993 574.213 216.373 562.985 198.044C538.315 157.773 502.572 125.076 459.664 104.108C405.028 77.4078 342.528 71.5572 283.885 87.6532C225.243 103.749 174.487 140.686 141.136 191.536C114.945 231.471 100.901 277.833 100.246 325.055C99.9483 346.548 85.4856 366.322 64.2069 369.363Z" fill="#1E1E1E"/>
<path d="M574.16 328.519C643.15 328.519 701.129 386.171 676.964 450.79C659.635 497.127 632.49 539.7 596.835 575.355C531.37 640.82 442.581 677.598 349.999 677.598C257.418 677.598 168.628 640.82 103.163 575.355C52.5334 524.725 19.0622 460.144 6.49221 390.647C0.352659 356.703 28.8841 328.519 63.3791 328.519C97.874 328.519 124.994 357.01 134.483 390.174C144.864 426.455 164.334 459.866 191.493 487.025C233.532 529.063 290.548 552.68 349.999 552.68C409.45 552.68 466.467 529.063 508.505 487.025C550.544 444.986 574.16 387.97 574.16 328.519Z" fill="url(#paint1_linear_1458_12537)"/>
<path fill-rule="evenodd" clip-rule="evenodd" d="M366.898 361.366C394.148 353.949 414.185 329.028 414.185 299.428C414.185 263.979 385.448 235.242 349.999 235.242C314.55 235.242 285.813 263.979 285.813 299.428C285.813 329.028 305.849 353.947 333.098 361.366V406.273C333.098 414.846 340.048 421.796 348.621 421.796H351.375C359.948 421.796 366.898 414.846 366.898 406.273V361.366Z" fill="#1E1E1E"/>
<defs>
<linearGradient id="paint0_linear_1458_12537" x1="514.107" y1="450.827" x2="580.039" y2="465.942" gradientUnits="userSpaceOnUse">
<stop stop-color="#1E1E1E"/>
<stop offset="1"/>
</linearGradient>
<linearGradient id="paint1_linear_1458_12537" x1="5.1262" y1="388.936" x2="527.464" y2="782.549" gradientUnits="userSpaceOnUse">
<stop stop-color="#ED5A4A"/>
<stop offset="1" stop-color="#E42915"/>
</linearGradient>
</defs>
</svg>
