<svg width="52" height="18" viewBox="0 0 52 18" fill="none" xmlns="http://www.w3.org/2000/svg">
<path fill-rule="evenodd" clip-rule="evenodd" d="M13.308 4.41868C14.471 3.54966 15.8838 3.08009 17.3356 3.08009H21.0017V6.55573C21.0017 6.74406 21.2114 6.85658 21.3683 6.75247L26.9041 3.08009H32.8065V6.54298C32.8065 6.73926 33.0321 6.84983 33.1872 6.72959L39.884 1.53925C41.0636 0.625039 42.5136 0.128906 44.006 0.128906H47.6061H51.3458V6.03128H48.6518C47.9731 6.03128 47.3129 6.25199 46.7706 6.66011L41.7037 10.4737L37.5985 13.5635C36.4321 14.4414 35.0119 14.9161 33.5521 14.9161H29.8553V11.4028C29.8553 11.214 29.6446 11.1015 29.4878 11.2067L23.9529 14.9161H18.0068V11.4735C18.0068 11.2768 17.7805 11.1664 17.6255 11.2874L11.0221 16.4425C9.83941 17.3658 8.382 17.8673 6.88154 17.8673H3.25091H0V11.9336H1.4462C2.61784 11.9336 3.75805 11.5547 4.6966 10.8534L9.17514 7.50687L13.308 4.41868Z" fill="white"/>
</svg>
