<svg width="121" height="19" viewBox="0 0 121 19" fill="none" xmlns="http://www.w3.org/2000/svg">
<path fill-rule="evenodd" clip-rule="evenodd" d="M13.308 4.61009C14.471 3.74106 15.8838 3.2715 17.3356 3.2715H21.0017V6.74714C21.0017 6.93546 21.2114 7.04799 21.3683 6.94388L26.9041 3.2715H32.8065V6.73439C32.8065 6.93067 33.0321 7.04124 33.1872 6.921L39.884 1.73066C41.0636 0.816445 42.5136 0.320312 44.006 0.320312H47.6061H51.3458V6.22268H48.6518C47.9731 6.22268 47.3129 6.44339 46.7706 6.85152L41.7037 10.6651L37.5985 13.7549C36.4321 14.6328 35.0119 15.1075 33.5521 15.1075H29.8553V11.5942C29.8553 11.4054 29.6446 11.293 29.4878 11.3981L23.9529 15.1075H18.0068V11.6649C18.0068 11.4682 17.7805 11.3578 17.6255 11.4788L11.0221 16.6339C9.83941 17.5572 8.382 18.0587 6.88153 18.0587H3.25091H0V12.1251H1.4462C2.61784 12.1251 3.75805 11.7461 4.6966 11.0448L9.17514 7.69827L13.308 4.61009Z" fill="white"/>
<path d="M61.0851 10.6318C60.8485 10.6318 60.6661 10.5678 60.5379 10.4396C60.4098 10.3016 60.3457 10.1143 60.3457 9.87771V3.96291C60.3457 3.71646 60.4098 3.52916 60.5379 3.40101C60.6661 3.27285 60.8435 3.20878 61.0703 3.20878C61.3069 3.20878 61.4843 3.27285 61.6026 3.40101C61.7308 3.52916 61.7948 3.71646 61.7948 3.96291V5.17545L61.6322 4.85013C61.8293 4.32766 62.1349 3.91855 62.549 3.62281C62.963 3.32707 63.4608 3.1792 64.0425 3.1792C64.6438 3.1792 65.1318 3.32214 65.5064 3.60803C65.881 3.89391 66.1373 4.33259 66.2753 4.92407H66.0683C66.2556 4.38188 66.576 3.95798 67.0294 3.65239C67.4829 3.33693 68.0103 3.1792 68.6116 3.1792C69.1637 3.1792 69.6171 3.28764 69.972 3.50452C70.3269 3.71153 70.5931 4.03192 70.7705 4.46567C70.948 4.88956 71.0367 5.42683 71.0367 6.07745V9.87771C71.0367 10.1143 70.9677 10.3016 70.8297 10.4396C70.7015 10.5678 70.5192 10.6318 70.2826 10.6318C70.046 10.6318 69.8636 10.5678 69.7354 10.4396C69.6073 10.3016 69.5432 10.1143 69.5432 9.87771V6.15139C69.5432 5.54019 69.4348 5.09165 69.2179 4.80577C69.0109 4.51989 68.6658 4.37695 68.1828 4.37695C67.6406 4.37695 67.2118 4.56425 66.8963 4.93885C66.5809 5.31346 66.4232 5.831 66.4232 6.49149V9.87771C66.4232 10.1143 66.3591 10.3016 66.2309 10.4396C66.1028 10.5678 65.9204 10.6318 65.6838 10.6318C65.4472 10.6318 65.2599 10.5678 65.1219 10.4396C64.9937 10.3016 64.9297 10.1143 64.9297 9.87771V6.15139C64.9297 5.54019 64.8262 5.09165 64.6191 4.80577C64.4121 4.51989 64.0671 4.37695 63.5841 4.37695C63.0419 4.37695 62.613 4.56425 62.2976 4.93885C61.992 5.31346 61.8392 5.831 61.8392 6.49149V9.87771C61.8392 10.3805 61.5878 10.6318 61.0851 10.6318Z" fill="white"/>
<path d="M75.4316 10.6614C74.9288 10.6614 74.4753 10.5628 74.0711 10.3657C73.6768 10.1685 73.3663 9.90235 73.1396 9.56718C72.9128 9.23201 72.7995 8.85248 72.7995 8.42858C72.7995 7.89625 72.9326 7.47729 73.1987 7.17169C73.4747 6.85623 73.9233 6.63443 74.5443 6.50628C75.1752 6.36826 76.023 6.29926 77.0877 6.29926H77.7827V7.21605H77.1025C76.3927 7.21605 75.8308 7.25055 75.4168 7.31956C75.0027 7.38857 74.707 7.50686 74.5295 7.67445C74.362 7.83218 74.2782 8.05398 74.2782 8.33986C74.2782 8.71447 74.4063 9.02006 74.6626 9.25666C74.9189 9.48339 75.2738 9.59676 75.7273 9.59676C76.092 9.59676 76.4124 9.51296 76.6884 9.34538C76.9645 9.16793 77.1813 8.93134 77.3391 8.6356C77.5067 8.33986 77.5905 7.99976 77.5905 7.6153V5.9148C77.5905 5.35289 77.4722 4.94871 77.2356 4.70226C76.999 4.45581 76.6096 4.33259 76.0674 4.33259C75.7519 4.33259 75.4217 4.37202 75.0767 4.45088C74.7415 4.52975 74.3915 4.66283 74.0268 4.85013C73.8592 4.929 73.7163 4.95364 73.598 4.92407C73.4797 4.89449 73.386 4.83042 73.317 4.73184C73.248 4.6234 73.2086 4.51003 73.1987 4.39174C73.1987 4.26358 73.2283 4.14036 73.2874 4.02206C73.3564 3.90376 73.4698 3.81504 73.6275 3.75589C74.0613 3.54888 74.4901 3.40101 74.914 3.31229C75.3379 3.22356 75.7371 3.1792 76.1118 3.1792C76.7722 3.1792 77.3144 3.28271 77.7383 3.48973C78.1721 3.69675 78.4925 4.0122 78.6995 4.4361C78.9065 4.85999 79.01 5.40711 79.01 6.07745V9.87771C79.01 10.1143 78.9509 10.3016 78.8326 10.4396C78.7143 10.5678 78.5417 10.6318 78.315 10.6318C78.0981 10.6318 77.9256 10.5678 77.7975 10.4396C77.6693 10.3016 77.6052 10.1143 77.6052 9.87771V8.91655H77.7383C77.6595 9.2813 77.5116 9.59676 77.2947 9.86292C77.0877 10.1192 76.8265 10.3164 76.511 10.4544C76.1955 10.5924 75.8357 10.6614 75.4316 10.6614Z" fill="white"/>
<path d="M81.8211 10.6318C81.5747 10.6318 81.3874 10.5678 81.2592 10.4396C81.1311 10.3016 81.067 10.1143 81.067 9.87771V3.96291C81.067 3.71646 81.1311 3.52916 81.2592 3.40101C81.3874 3.27285 81.5648 3.20878 81.7916 3.20878C82.0282 3.20878 82.2056 3.27285 82.3239 3.40101C82.4521 3.52916 82.5161 3.71646 82.5161 3.96291V5.04236H82.3683C82.526 4.45088 82.8168 4.00235 83.2407 3.69675C83.6646 3.39115 84.2068 3.21371 84.8673 3.16442C85.0447 3.15456 85.1827 3.19892 85.2813 3.2975C85.3897 3.39608 85.4489 3.54888 85.4587 3.75589C85.4785 3.96291 85.4341 4.1305 85.3257 4.25865C85.2172 4.37695 85.0496 4.44595 84.8229 4.46567L84.542 4.49524C83.9012 4.55439 83.4132 4.75648 83.078 5.10151C82.7429 5.44654 82.5753 5.91972 82.5753 6.52106V9.87771C82.5753 10.1143 82.5112 10.3016 82.3831 10.4396C82.2648 10.5678 82.0775 10.6318 81.8211 10.6318Z" fill="white"/>
<path d="M87.3226 10.6318C87.086 10.6318 86.9036 10.5678 86.7755 10.4396C86.6473 10.3016 86.5833 10.1143 86.5833 9.87771V0.754137C86.5833 0.507686 86.6473 0.320384 86.7755 0.19223C86.9036 0.0640768 87.086 0 87.3226 0C87.5592 0 87.7416 0.0640768 87.8697 0.19223C88.0077 0.320384 88.0767 0.507686 88.0767 0.754137V6.46191H88.1063L90.8715 3.71153C91.0292 3.55381 91.1721 3.43058 91.3003 3.34186C91.4285 3.25314 91.596 3.20878 91.8031 3.20878C92.0101 3.20878 92.1678 3.263 92.2762 3.37143C92.3847 3.47987 92.4389 3.61295 92.4389 3.77068C92.4389 3.91855 92.365 4.07135 92.2171 4.22908L89.2893 7.12733V6.43234L92.4833 9.61154C92.641 9.76927 92.7149 9.927 92.7051 10.0847C92.6952 10.2425 92.6311 10.3755 92.5128 10.484C92.3945 10.5826 92.2467 10.6318 92.0692 10.6318C91.8425 10.6318 91.6601 10.5875 91.5221 10.4988C91.394 10.41 91.2412 10.277 91.0637 10.0995L88.1063 7.23084H88.0767V9.87771C88.0767 10.3805 87.8254 10.6318 87.3226 10.6318Z" fill="white"/>
<path d="M97.4352 10.6614C96.6465 10.6614 95.9663 10.5135 95.3946 10.2178C94.8327 9.91221 94.394 9.48339 94.0785 8.93134C93.7729 8.36944 93.6201 7.70402 93.6201 6.9351C93.6201 6.18589 93.7729 5.53033 94.0785 4.96843C94.3841 4.40652 94.8031 3.96784 95.3354 3.65239C95.8678 3.33693 96.474 3.1792 97.1542 3.1792C97.657 3.1792 98.1055 3.263 98.4998 3.43058C98.8942 3.58831 99.2293 3.8249 99.5053 4.14036C99.7912 4.44595 100.003 4.82056 100.141 5.26417C100.289 5.70778 100.363 6.20561 100.363 6.75765C100.363 6.92524 100.314 7.05339 100.215 7.14212C100.117 7.22098 99.9687 7.26041 99.7715 7.26041H94.8031V6.34362H99.3575L99.1061 6.55064C99.1061 6.05774 99.0322 5.63877 98.8843 5.29374C98.7463 4.94871 98.5343 4.68748 98.2485 4.51003C97.9724 4.32273 97.6274 4.22908 97.2134 4.22908C96.75 4.22908 96.3557 4.33752 96.0304 4.55439C95.715 4.77127 95.4734 5.07194 95.3058 5.4564C95.1383 5.84086 95.0545 6.2894 95.0545 6.80202V6.89074C95.0545 7.75824 95.2566 8.4138 95.6607 8.85741C96.0748 9.29116 96.6712 9.50803 97.45 9.50803C97.7457 9.50803 98.0562 9.4686 98.3815 9.38974C98.7167 9.31087 99.0322 9.17779 99.3279 8.99049C99.4955 8.89191 99.6434 8.84755 99.7715 8.85741C99.9095 8.86726 100.018 8.91163 100.097 8.99049C100.186 9.06935 100.24 9.16793 100.259 9.28623C100.279 9.40453 100.259 9.52775 100.2 9.6559C100.141 9.7742 100.038 9.88264 99.8898 9.98122C99.5546 10.208 99.1652 10.3805 98.7216 10.4988C98.278 10.6072 97.8492 10.6614 97.4352 10.6614Z" fill="white"/>
<path d="M105.377 10.6614C104.589 10.6614 103.909 10.5135 103.337 10.2178C102.775 9.91221 102.336 9.48339 102.021 8.93134C101.715 8.36944 101.562 7.70402 101.562 6.9351C101.562 6.18589 101.715 5.53033 102.021 4.96843C102.326 4.40652 102.745 3.96784 103.278 3.65239C103.81 3.33693 104.416 3.1792 105.096 3.1792C105.599 3.1792 106.048 3.263 106.442 3.43058C106.836 3.58831 107.172 3.8249 107.448 4.14036C107.733 4.44595 107.945 4.82056 108.083 5.26417C108.231 5.70778 108.305 6.20561 108.305 6.75765C108.305 6.92524 108.256 7.05339 108.157 7.14212C108.059 7.22098 107.911 7.26041 107.714 7.26041H102.745V6.34362H107.3L107.048 6.55064C107.048 6.05774 106.974 5.63877 106.827 5.29374C106.689 4.94871 106.477 4.68748 106.191 4.51003C105.915 4.32273 105.57 4.22908 105.156 4.22908C104.692 4.22908 104.298 4.33752 103.973 4.55439C103.657 4.77127 103.416 5.07194 103.248 5.4564C103.08 5.84086 102.997 6.2894 102.997 6.80202V6.89074C102.997 7.75824 103.199 8.4138 103.603 8.85741C104.017 9.29116 104.613 9.50803 105.392 9.50803C105.688 9.50803 105.998 9.4686 106.324 9.38974C106.659 9.31087 106.974 9.17779 107.27 8.99049C107.438 8.89191 107.586 8.84755 107.714 8.85741C107.852 8.86726 107.96 8.91163 108.039 8.99049C108.128 9.06935 108.182 9.16793 108.202 9.28623C108.221 9.40453 108.202 9.52775 108.143 9.6559C108.083 9.7742 107.98 9.88264 107.832 9.98122C107.497 10.208 107.107 10.3805 106.664 10.4988C106.22 10.6072 105.791 10.6614 105.377 10.6614Z" fill="white"/>
<path d="M110.688 10.6318C110.441 10.6318 110.254 10.5678 110.126 10.4396C109.997 10.3016 109.933 10.1143 109.933 9.87771V3.96291C109.933 3.71646 109.997 3.52916 110.126 3.40101C110.254 3.27285 110.431 3.20878 110.658 3.20878C110.895 3.20878 111.072 3.27285 111.19 3.40101C111.318 3.52916 111.383 3.71646 111.383 3.96291V5.04236H111.235C111.392 4.45088 111.683 4.00235 112.107 3.69675C112.531 3.39115 113.073 3.21371 113.734 3.16442C113.911 3.15456 114.049 3.19892 114.148 3.2975C114.256 3.39608 114.315 3.54888 114.325 3.75589C114.345 3.96291 114.301 4.1305 114.192 4.25865C114.084 4.37695 113.916 4.44595 113.689 4.46567L113.408 4.49524C112.768 4.55439 112.28 4.75648 111.944 5.10151C111.609 5.44654 111.442 5.91972 111.442 6.52106V9.87771C111.442 10.1143 111.378 10.3016 111.249 10.4396C111.131 10.5678 110.944 10.6318 110.688 10.6318Z" fill="white"/>
<path d="M61.3342 17.522C61.1336 17.522 60.9591 17.4856 60.8106 17.4126C60.6622 17.3397 60.5476 17.2381 60.4668 17.1079C60.3861 16.9777 60.3457 16.8266 60.3457 16.6547H60.6895C60.6895 16.7615 60.7143 16.8604 60.7638 16.9516C60.8132 17.0402 60.8849 17.1118 60.9786 17.1665C61.075 17.2186 61.1935 17.2446 61.3342 17.2446C61.5191 17.2446 61.6624 17.2004 61.7639 17.1118C61.8655 17.0232 61.9163 16.9125 61.9163 16.7797C61.9163 16.6703 61.8929 16.583 61.846 16.5179C61.7991 16.4502 61.7353 16.3955 61.6545 16.3538C61.5764 16.3122 61.4852 16.2757 61.3811 16.2444C61.2795 16.2132 61.1727 16.178 61.0607 16.139C60.8497 16.066 60.6934 15.9762 60.5918 15.8694C60.4903 15.76 60.4395 15.618 60.4395 15.4435C60.4369 15.2976 60.4707 15.1687 60.5411 15.0567C60.6114 14.9421 60.7104 14.8536 60.838 14.791C60.9682 14.7259 61.1219 14.6934 61.299 14.6934C61.4735 14.6934 61.6246 14.7259 61.7522 14.791C61.8825 14.8562 61.9827 14.946 62.0531 15.0606C62.126 15.1752 62.1638 15.3055 62.1664 15.4513H61.8225C61.8225 15.3758 61.803 15.3016 61.7639 15.2286C61.7249 15.1531 61.665 15.0919 61.5842 15.045C61.5061 14.9981 61.4071 14.9747 61.2873 14.9747C61.1388 14.9721 61.0164 15.0098 60.92 15.088C60.8263 15.1661 60.7794 15.2742 60.7794 15.4123C60.7794 15.5295 60.8119 15.6193 60.8771 15.6818C60.9448 15.7443 61.0385 15.7964 61.1584 15.8381C61.2782 15.8772 61.4162 15.9228 61.5725 15.9749C61.7027 16.0217 61.8199 16.0764 61.9241 16.139C62.0283 16.2015 62.1091 16.2822 62.1664 16.3812C62.2263 16.4802 62.2562 16.6065 62.2562 16.7602C62.2562 16.8904 62.2224 17.0141 62.1546 17.1313C62.0869 17.2459 61.984 17.3397 61.846 17.4126C61.7105 17.4856 61.5399 17.522 61.3342 17.522Z" fill="white"/>
<path d="M62.9014 15.1075C62.8362 15.1075 62.7816 15.0867 62.7373 15.045C62.6956 15.0007 62.6748 14.946 62.6748 14.8809C62.6748 14.8184 62.6956 14.7663 62.7373 14.7246C62.7816 14.6829 62.8362 14.6621 62.9014 14.6621C62.9639 14.6621 63.0173 14.6829 63.0616 14.7246C63.1058 14.7663 63.128 14.8184 63.128 14.8809C63.128 14.946 63.1058 15.0007 63.0616 15.045C63.0173 15.0867 62.9639 15.1075 62.9014 15.1075ZM62.7373 17.4751V15.5373H63.0655V17.4751H62.7373Z" fill="white"/>
<path d="M64.3792 17.522C64.1474 17.522 63.9547 17.4634 63.801 17.3462C63.6473 17.229 63.5574 17.0701 63.5314 16.8696H63.8674C63.8882 16.9711 63.9416 17.0597 64.0276 17.1352C64.1161 17.2082 64.2347 17.2446 64.3831 17.2446C64.5212 17.2446 64.6228 17.216 64.6879 17.1587C64.753 17.0988 64.7855 17.0284 64.7855 16.9477C64.7855 16.8305 64.7426 16.7524 64.6566 16.7133C64.5733 16.6742 64.4548 16.639 64.3011 16.6078C64.1969 16.587 64.0927 16.557 63.9885 16.5179C63.8843 16.4789 63.7971 16.4242 63.7267 16.3538C63.6564 16.2809 63.6213 16.1858 63.6213 16.0686C63.6213 15.8993 63.6838 15.7613 63.8088 15.6545C63.9364 15.5451 64.1083 15.4904 64.3245 15.4904C64.5303 15.4904 64.6983 15.5425 64.8285 15.6467C64.9614 15.7483 65.0382 15.8941 65.059 16.0843H64.7348C64.7217 15.9853 64.6788 15.9084 64.6058 15.8537C64.5355 15.7964 64.4404 15.7678 64.3206 15.7678C64.2034 15.7678 64.1122 15.7925 64.0471 15.842C63.9846 15.8915 63.9534 15.9566 63.9534 16.0374C63.9534 16.1155 63.9937 16.1767 64.0745 16.221C64.1578 16.2653 64.2698 16.303 64.4105 16.3343C64.5303 16.3603 64.6436 16.3929 64.7504 16.432C64.8598 16.4684 64.9483 16.5244 65.0161 16.6C65.0864 16.6729 65.1215 16.7797 65.1215 16.9204C65.1241 17.0949 65.0577 17.2394 64.9223 17.354C64.7895 17.466 64.6084 17.522 64.3792 17.522Z" fill="white"/>
<path d="M66.2684 17.4751C66.0913 17.4751 65.9519 17.4322 65.8504 17.3462C65.7488 17.2603 65.698 17.1053 65.698 16.8813V15.8147H65.362V15.5373H65.698L65.741 15.0723H66.0262V15.5373H66.5966V15.8147H66.0262V16.8813C66.0262 17.0037 66.0509 17.0871 66.1004 17.1313C66.1499 17.173 66.2371 17.1938 66.3622 17.1938H66.5653V17.4751H66.2684Z" fill="white"/>
<path d="M67.8314 17.522C67.6465 17.522 67.4824 17.4804 67.3391 17.397C67.1958 17.3111 67.0825 17.1925 66.9992 17.0415C66.9184 16.8904 66.8781 16.712 66.8781 16.5062C66.8781 16.303 66.9184 16.1259 66.9992 15.9749C67.0799 15.8212 67.1919 15.7027 67.3352 15.6193C67.4811 15.5334 67.6491 15.4904 67.8392 15.4904C68.0267 15.4904 68.1882 15.5334 68.3237 15.6193C68.4617 15.7027 68.5672 15.8134 68.6401 15.9514C68.7131 16.0895 68.7495 16.2379 68.7495 16.3968C68.7495 16.4255 68.7482 16.4541 68.7456 16.4828C68.7456 16.5114 68.7456 16.544 68.7456 16.5804H67.2024C67.2102 16.7289 67.244 16.8526 67.3039 16.9516C67.3664 17.048 67.4433 17.1209 67.5344 17.1704C67.6282 17.2199 67.7272 17.2446 67.8314 17.2446C67.9668 17.2446 68.0801 17.2134 68.1713 17.1509C68.2625 17.0884 68.3289 17.0037 68.3705 16.8969H68.6948C68.6427 17.0766 68.5425 17.2264 68.394 17.3462C68.2481 17.4634 68.0606 17.522 67.8314 17.522ZM67.8314 15.7678C67.6751 15.7678 67.5358 15.816 67.4133 15.9123C67.2935 16.0061 67.2245 16.1442 67.2063 16.3265H68.4252C68.4174 16.152 68.3575 16.0152 68.2455 15.9163C68.1335 15.8173 67.9955 15.7678 67.8314 15.7678Z" fill="white"/>
<path d="M69.1845 17.4751V15.5373H69.4814L69.5049 15.8186C69.5674 15.7144 69.6507 15.6336 69.7549 15.5763C69.8591 15.519 69.9763 15.4904 70.1066 15.4904C70.2602 15.4904 70.3918 15.5216 70.5012 15.5842C70.6132 15.6467 70.6991 15.7417 70.759 15.8694C70.8268 15.7522 70.9192 15.6597 71.0364 15.592C71.1562 15.5243 71.2852 15.4904 71.4232 15.4904C71.655 15.4904 71.84 15.5607 71.978 15.7014C72.1161 15.8394 72.1851 16.053 72.1851 16.3421V17.4751H71.8608V16.3773C71.8608 16.1767 71.8204 16.0257 71.7397 15.9241C71.6589 15.8225 71.543 15.7717 71.392 15.7717C71.2357 15.7717 71.1055 15.8329 71.0013 15.9553C70.8997 16.0751 70.8489 16.247 70.8489 16.471V17.4751H70.5207V16.3773C70.5207 16.1767 70.4803 16.0257 70.3996 15.9241C70.3188 15.8225 70.2029 15.7717 70.0519 15.7717C69.8982 15.7717 69.7693 15.8329 69.6651 15.9553C69.5635 16.0751 69.5127 16.247 69.5127 16.471V17.4751H69.1845Z" fill="white"/>
<path d="M73.733 17.4751V14.7402H74.1158L75.1004 16.6469L76.0772 14.7402H76.4639V17.4751H76.1358V15.3263L75.2215 17.0844H74.9754L74.0611 15.3302V17.4751H73.733Z" fill="white"/>
<path d="M77.666 17.522C77.5046 17.522 77.3704 17.4947 77.2636 17.44C77.1568 17.3853 77.0774 17.3124 77.0253 17.2212C76.9732 17.13 76.9472 17.0311 76.9472 16.9243C76.9472 16.7263 77.0227 16.5739 77.1738 16.4671C77.3248 16.3603 77.5306 16.307 77.7911 16.307H78.3146V16.2835C78.3146 16.1142 78.2703 15.9866 78.1818 15.9006C78.0932 15.8121 77.9747 15.7678 77.8262 15.7678C77.6986 15.7678 77.5879 15.8003 77.4941 15.8655C77.403 15.928 77.3457 16.0204 77.3222 16.1429H76.9862C76.9993 16.0022 77.0461 15.8837 77.1269 15.7873C77.2102 15.691 77.3131 15.618 77.4355 15.5685C77.558 15.5164 77.6882 15.4904 77.8262 15.4904C78.0971 15.4904 78.3003 15.5633 78.4357 15.7092C78.5738 15.8524 78.6428 16.0439 78.6428 16.2835V17.4751H78.3498L78.3302 17.1274C78.2755 17.2368 78.1948 17.3306 78.088 17.4087C77.9838 17.4843 77.8432 17.522 77.666 17.522ZM77.7168 17.2446C77.8419 17.2446 77.9487 17.2121 78.0372 17.147C78.1284 17.0818 78.1974 16.9972 78.2443 16.893C78.2912 16.7888 78.3146 16.6794 78.3146 16.5648V16.5609H77.8184C77.6257 16.5609 77.4889 16.5948 77.4082 16.6625C77.33 16.7276 77.291 16.8097 77.291 16.9086C77.291 17.0102 77.3274 17.0923 77.4004 17.1548C77.4759 17.2147 77.5814 17.2446 77.7168 17.2446Z" fill="white"/>
<path d="M79.1351 17.4751V15.5373H79.4321L79.4516 15.885C79.5141 15.7626 79.604 15.6662 79.7212 15.5959C79.8384 15.5256 79.9712 15.4904 80.1197 15.4904C80.3489 15.4904 80.5312 15.5607 80.6667 15.7014C80.8047 15.8394 80.8738 16.053 80.8738 16.3421V17.4751H80.5456V16.3773C80.5456 15.9736 80.3789 15.7717 80.0455 15.7717C79.8788 15.7717 79.7394 15.8329 79.6274 15.9553C79.518 16.0751 79.4633 16.247 79.4633 16.471V17.4751H79.1351Z" fill="white"/>
<path d="M82.0156 17.522C81.8541 17.522 81.72 17.4947 81.6132 17.44C81.5064 17.3853 81.427 17.3124 81.3749 17.2212C81.3228 17.13 81.2967 17.0311 81.2967 16.9243C81.2967 16.7263 81.3723 16.5739 81.5233 16.4671C81.6744 16.3603 81.8802 16.307 82.1407 16.307H82.6642V16.2835C82.6642 16.1142 82.6199 15.9866 82.5314 15.9006C82.4428 15.8121 82.3243 15.7678 82.1758 15.7678C82.0482 15.7678 81.9375 15.8003 81.8437 15.8655C81.7526 15.928 81.6953 16.0204 81.6718 16.1429H81.3358C81.3488 16.0022 81.3957 15.8837 81.4765 15.7873C81.5598 15.691 81.6627 15.618 81.7851 15.5685C81.9075 15.5164 82.0378 15.4904 82.1758 15.4904C82.4467 15.4904 82.6499 15.5633 82.7853 15.7092C82.9234 15.8524 82.9924 16.0439 82.9924 16.2835V17.4751H82.6994L82.6798 17.1274C82.6251 17.2368 82.5444 17.3306 82.4376 17.4087C82.3334 17.4843 82.1927 17.522 82.0156 17.522ZM82.0664 17.2446C82.1914 17.2446 82.2982 17.2121 82.3868 17.147C82.478 17.0818 82.547 16.9972 82.5939 16.893C82.6408 16.7888 82.6642 16.6794 82.6642 16.5648V16.5609H82.168C81.9753 16.5609 81.8385 16.5948 81.7578 16.6625C81.6796 16.7276 81.6406 16.8097 81.6406 16.9086C81.6406 17.0102 81.677 17.0923 81.75 17.1548C81.8255 17.2147 81.931 17.2446 82.0664 17.2446Z" fill="white"/>
<path d="M83.6996 15.1075C83.6371 15.1075 83.5837 15.0867 83.5394 15.045C83.4951 15.0007 83.473 14.946 83.473 14.8809C83.473 14.8184 83.4951 14.7663 83.5394 14.7246C83.5837 14.6829 83.6371 14.6621 83.6996 14.6621C83.7621 14.6621 83.8142 14.6829 83.8559 14.7246C83.9002 14.7663 83.9223 14.8184 83.9223 14.8809C83.9223 14.946 83.9002 15.0007 83.8559 15.045C83.8142 15.0867 83.7621 15.1075 83.6996 15.1075ZM83.1057 18.3347V18.0534H83.2581C83.3545 18.0534 83.4235 18.0325 83.4652 17.9909C83.5095 17.9518 83.5316 17.8841 83.5316 17.7877V15.5373H83.8598V17.7955C83.8598 17.9831 83.8129 18.1198 83.7191 18.2058C83.6254 18.2917 83.4886 18.3347 83.3089 18.3347H83.1057Z" fill="white"/>
<path d="M85.3022 17.522C85.1173 17.522 84.9532 17.4804 84.8099 17.397C84.6667 17.3111 84.5534 17.1925 84.47 17.0415C84.3893 16.8904 84.3489 16.712 84.3489 16.5062C84.3489 16.303 84.3893 16.1259 84.47 15.9749C84.5508 15.8212 84.6628 15.7027 84.806 15.6193C84.9519 15.5334 85.1199 15.4904 85.31 15.4904C85.4976 15.4904 85.659 15.5334 85.7945 15.6193C85.9325 15.7027 86.038 15.8134 86.111 15.9514C86.1839 16.0895 86.2204 16.2379 86.2204 16.3968C86.2204 16.4255 86.219 16.4541 86.2164 16.4828C86.2164 16.5114 86.2164 16.544 86.2164 16.5804H84.6732C84.681 16.7289 84.7149 16.8526 84.7748 16.9516C84.8373 17.048 84.9141 17.1209 85.0053 17.1704C85.099 17.2199 85.198 17.2446 85.3022 17.2446C85.4376 17.2446 85.551 17.2134 85.6421 17.1509C85.7333 17.0884 85.7997 17.0037 85.8414 16.8969H86.1657C86.1136 17.0766 86.0133 17.2264 85.8648 17.3462C85.719 17.4634 85.5314 17.522 85.3022 17.522ZM85.3022 15.7678C85.1459 15.7678 85.0066 15.816 84.8842 15.9123C84.7643 16.0061 84.6953 16.1442 84.6771 16.3265H85.8961C85.8883 16.152 85.8283 16.0152 85.7163 15.9163C85.6043 15.8173 85.4663 15.7678 85.3022 15.7678Z" fill="white"/>
<path d="M86.6553 17.4751V15.5373H86.9523L86.9757 15.8186C87.0382 15.7144 87.1216 15.6336 87.2258 15.5763C87.3299 15.519 87.4472 15.4904 87.5774 15.4904C87.7311 15.4904 87.8626 15.5216 87.972 15.5842C88.084 15.6467 88.1699 15.7417 88.2299 15.8694C88.2976 15.7522 88.39 15.6597 88.5073 15.592C88.6271 15.5243 88.756 15.4904 88.894 15.4904C89.1259 15.4904 89.3108 15.5607 89.4488 15.7014C89.5869 15.8394 89.6559 16.053 89.6559 16.3421V17.4751H89.3316V16.3773C89.3316 16.1767 89.2913 16.0257 89.2105 15.9241C89.1298 15.8225 89.0139 15.7717 88.8628 15.7717C88.7065 15.7717 88.5763 15.8329 88.4721 15.9553C88.3705 16.0751 88.3197 16.247 88.3197 16.471V17.4751H87.9915V16.3773C87.9915 16.1767 87.9512 16.0257 87.8704 15.9241C87.7897 15.8225 87.6738 15.7717 87.5227 15.7717C87.369 15.7717 87.2401 15.8329 87.1359 15.9553C87.0343 16.0751 86.9835 16.247 86.9835 16.471V17.4751H86.6553Z" fill="white"/>
<path d="M91.0215 17.522C90.8366 17.522 90.6725 17.4804 90.5292 17.397C90.386 17.3111 90.2727 17.1925 90.1893 17.0415C90.1086 16.8904 90.0682 16.712 90.0682 16.5062C90.0682 16.303 90.1086 16.1259 90.1893 15.9749C90.2701 15.8212 90.3821 15.7027 90.5253 15.6193C90.6712 15.5334 90.8392 15.4904 91.0293 15.4904C91.2169 15.4904 91.3784 15.5334 91.5138 15.6193C91.6519 15.7027 91.7573 15.8134 91.8303 15.9514C91.9032 16.0895 91.9397 16.2379 91.9397 16.3968C91.9397 16.4255 91.9384 16.4541 91.9358 16.4828C91.9358 16.5114 91.9358 16.544 91.9358 16.5804H90.3925C90.4003 16.7289 90.4342 16.8526 90.4941 16.9516C90.5566 17.048 90.6334 17.1209 90.7246 17.1704C90.8184 17.2199 90.9173 17.2446 91.0215 17.2446C91.157 17.2446 91.2703 17.2134 91.3614 17.1509C91.4526 17.0884 91.519 17.0037 91.5607 16.8969H91.885C91.8329 17.0766 91.7326 17.2264 91.5841 17.3462C91.4383 17.4634 91.2507 17.522 91.0215 17.522ZM91.0215 15.7678C90.8652 15.7678 90.7259 15.816 90.6035 15.9123C90.4837 16.0061 90.4146 16.1442 90.3964 16.3265H91.6154C91.6076 16.152 91.5477 16.0152 91.4357 15.9163C91.3237 15.8173 91.1856 15.7678 91.0215 15.7678Z" fill="white"/>
<path d="M92.3747 17.4751V15.5373H92.6716L92.6911 15.885C92.7536 15.7626 92.8435 15.6662 92.9607 15.5959C93.0779 15.5256 93.2108 15.4904 93.3592 15.4904C93.5884 15.4904 93.7708 15.5607 93.9062 15.7014C94.0442 15.8394 94.1133 16.053 94.1133 16.3421V17.4751H93.7851V16.3773C93.7851 15.9736 93.6184 15.7717 93.285 15.7717C93.1183 15.7717 92.9789 15.8329 92.8669 15.9553C92.7575 16.0751 92.7028 16.247 92.7028 16.471V17.4751H92.3747Z" fill="white"/>
<path d="M95.664 17.4751V14.7402H96.5626C96.7762 14.7402 96.952 14.7754 97.0901 14.8457C97.2281 14.9161 97.3297 15.0111 97.3948 15.1309C97.4625 15.2508 97.4964 15.3862 97.4964 15.5373C97.4964 15.6857 97.4638 15.8199 97.3987 15.9397C97.3336 16.0595 97.232 16.1559 97.094 16.2288C96.9559 16.2991 96.7788 16.3343 96.5626 16.3343H95.9922V17.4751H95.664ZM95.9922 16.0569H96.5548C96.7736 16.0569 96.9286 16.0113 97.0197 15.9202C97.1135 15.8264 97.1604 15.6988 97.1604 15.5373C97.1604 15.3732 97.1135 15.2456 97.0197 15.1544C96.9286 15.0606 96.7736 15.0137 96.5548 15.0137H95.9922V16.0569Z" fill="white"/>
<path d="M98.6638 17.522C98.4789 17.522 98.3148 17.4804 98.1715 17.397C98.0283 17.3111 97.915 17.1925 97.8316 17.0415C97.7509 16.8904 97.7105 16.712 97.7105 16.5062C97.7105 16.303 97.7509 16.1259 97.8316 15.9749C97.9124 15.8212 98.0244 15.7027 98.1676 15.6193C98.3135 15.5334 98.4815 15.4904 98.6716 15.4904C98.8592 15.4904 99.0207 15.5334 99.1561 15.6193C99.2941 15.7027 99.3996 15.8134 99.4726 15.9514C99.5455 16.0895 99.582 16.2379 99.582 16.3968C99.582 16.4255 99.5807 16.4541 99.5781 16.4828C99.5781 16.5114 99.5781 16.544 99.5781 16.5804H98.0348C98.0426 16.7289 98.0765 16.8526 98.1364 16.9516C98.1989 17.048 98.2757 17.1209 98.3669 17.1704C98.4607 17.2199 98.5596 17.2446 98.6638 17.2446C98.7993 17.2446 98.9126 17.2134 99.0037 17.1509C99.0949 17.0884 99.1613 17.0037 99.203 16.8969H99.5273C99.4752 17.0766 99.3749 17.2264 99.2264 17.3462C99.0806 17.4634 98.893 17.522 98.6638 17.522ZM98.6638 15.7678C98.5075 15.7678 98.3682 15.816 98.2458 15.9123C98.126 16.0061 98.0569 16.1442 98.0387 16.3265H99.2577C99.2499 16.152 99.19 16.0152 99.078 15.9163C98.966 15.8173 98.8279 15.7678 98.6638 15.7678Z" fill="white"/>
<path d="M100.718 17.4751C100.541 17.4751 100.401 17.4322 100.3 17.3462C100.198 17.2603 100.147 17.1053 100.147 16.8813V15.8147H99.8114V15.5373H100.147L100.19 15.0723H100.476V15.5373H101.046V15.8147H100.476V16.8813C100.476 17.0037 100.5 17.0871 100.55 17.1313C100.599 17.173 100.687 17.1938 100.812 17.1938H101.015V17.4751H100.718Z" fill="white"/>
<path d="M102.17 17.522C101.941 17.522 101.759 17.453 101.623 17.315C101.488 17.1743 101.42 16.9594 101.42 16.6703V15.5373H101.748V16.6351C101.748 17.0389 101.914 17.2407 102.244 17.2407C102.414 17.2407 102.553 17.1808 102.662 17.061C102.774 16.9386 102.83 16.7654 102.83 16.5414V15.5373H103.159V17.4751H102.862L102.838 17.1274C102.778 17.2498 102.688 17.3462 102.569 17.4165C102.451 17.4869 102.319 17.522 102.17 17.522Z" fill="white"/>
<path d="M104.465 16.8657C104.355 16.8657 104.255 16.8513 104.164 16.8227L103.968 17.0063C103.997 17.0271 104.032 17.0454 104.074 17.061C104.118 17.074 104.181 17.0871 104.261 17.1001C104.342 17.1105 104.455 17.1222 104.601 17.1352C104.862 17.1535 105.048 17.2134 105.16 17.315C105.272 17.4165 105.328 17.5494 105.328 17.7135C105.328 17.8255 105.297 17.9323 105.234 18.0338C105.174 18.1354 105.081 18.2188 104.953 18.2839C104.828 18.349 104.666 18.3816 104.469 18.3816C104.294 18.3816 104.139 18.3581 104.004 18.3112C103.868 18.267 103.763 18.1979 103.687 18.1042C103.612 18.013 103.574 17.8971 103.574 17.7564C103.574 17.6835 103.593 17.6041 103.632 17.5181C103.671 17.4348 103.744 17.3553 103.851 17.2798C103.794 17.2564 103.744 17.2316 103.703 17.2056C103.664 17.1769 103.627 17.1457 103.593 17.1118V17.0219L103.925 16.6937C103.772 16.5635 103.695 16.3916 103.695 16.178C103.695 16.0504 103.725 15.9345 103.785 15.8303C103.845 15.7261 103.932 15.6441 104.047 15.5842C104.161 15.5216 104.301 15.4904 104.465 15.4904C104.577 15.4904 104.678 15.506 104.769 15.5373H105.484V15.7834L105.121 15.799C105.197 15.9084 105.234 16.0348 105.234 16.178C105.234 16.3057 105.203 16.4216 105.141 16.5257C105.081 16.6299 104.993 16.7133 104.879 16.7758C104.767 16.8357 104.629 16.8657 104.465 16.8657ZM104.465 16.5961C104.603 16.5961 104.712 16.5609 104.793 16.4906C104.876 16.4177 104.918 16.3135 104.918 16.178C104.918 16.0452 104.876 15.9436 104.793 15.8733C104.712 15.8003 104.603 15.7639 104.465 15.7639C104.324 15.7639 104.212 15.8003 104.129 15.8733C104.048 15.9436 104.007 16.0452 104.007 16.178C104.007 16.3135 104.048 16.4177 104.129 16.4906C104.212 16.5609 104.324 16.5961 104.465 16.5961ZM103.894 17.7252C103.894 17.8554 103.949 17.9518 104.058 18.0143C104.168 18.0794 104.304 18.112 104.469 18.112C104.63 18.112 104.759 18.0768 104.855 18.0065C104.954 17.9362 105.004 17.8424 105.004 17.7252C105.004 17.6418 104.97 17.5689 104.902 17.5064C104.834 17.4465 104.709 17.4113 104.527 17.4009C104.384 17.3905 104.26 17.3775 104.156 17.3618C104.049 17.4191 103.979 17.4804 103.945 17.5455C103.911 17.6132 103.894 17.6731 103.894 17.7252Z" fill="white"/>
<path d="M106.499 17.522C106.338 17.522 106.204 17.4947 106.097 17.44C105.99 17.3853 105.911 17.3124 105.858 17.2212C105.806 17.13 105.78 17.0311 105.78 16.9243C105.78 16.7263 105.856 16.5739 106.007 16.4671C106.158 16.3603 106.364 16.307 106.624 16.307H107.148V16.2835C107.148 16.1142 107.103 15.9866 107.015 15.9006C106.926 15.8121 106.808 15.7678 106.659 15.7678C106.532 15.7678 106.421 15.8003 106.327 15.8655C106.236 15.928 106.179 16.0204 106.155 16.1429H105.819C105.832 16.0022 105.879 15.8837 105.96 15.7873C106.043 15.691 106.146 15.618 106.269 15.5685C106.391 15.5164 106.521 15.4904 106.659 15.4904C106.93 15.4904 107.133 15.5633 107.269 15.7092C107.407 15.8524 107.476 16.0439 107.476 16.2835V17.4751H107.183L107.163 17.1274C107.109 17.2368 107.028 17.3306 106.921 17.4087C106.817 17.4843 106.676 17.522 106.499 17.522ZM106.55 17.2446C106.675 17.2446 106.782 17.2121 106.87 17.147C106.962 17.0818 107.031 16.9972 107.077 16.893C107.124 16.7888 107.148 16.6794 107.148 16.5648V16.5609H106.652C106.459 16.5609 106.322 16.5948 106.241 16.6625C106.163 16.7276 106.124 16.8097 106.124 16.9086C106.124 17.0102 106.161 17.0923 106.234 17.1548C106.309 17.2147 106.415 17.2446 106.55 17.2446Z" fill="white"/>
<path d="M108.711 17.522C108.479 17.522 108.286 17.4634 108.132 17.3462C107.979 17.229 107.889 17.0701 107.863 16.8696H108.199C108.22 16.9711 108.273 17.0597 108.359 17.1352C108.448 17.2082 108.566 17.2446 108.715 17.2446C108.853 17.2446 108.954 17.216 109.019 17.1587C109.084 17.0988 109.117 17.0284 109.117 16.9477C109.117 16.8305 109.074 16.7524 108.988 16.7133C108.905 16.6742 108.786 16.639 108.632 16.6078C108.528 16.587 108.424 16.557 108.32 16.5179C108.216 16.4789 108.128 16.4242 108.058 16.3538C107.988 16.2809 107.953 16.1858 107.953 16.0686C107.953 15.8993 108.015 15.7613 108.14 15.6545C108.268 15.5451 108.44 15.4904 108.656 15.4904C108.862 15.4904 109.03 15.5425 109.16 15.6467C109.293 15.7483 109.37 15.8941 109.39 16.0843H109.066C109.053 15.9853 109.01 15.9084 108.937 15.8537C108.867 15.7964 108.772 15.7678 108.652 15.7678C108.535 15.7678 108.444 15.7925 108.379 15.842C108.316 15.8915 108.285 15.9566 108.285 16.0374C108.285 16.1155 108.325 16.1767 108.406 16.221C108.489 16.2653 108.601 16.303 108.742 16.3343C108.862 16.3603 108.975 16.3929 109.082 16.432C109.191 16.4684 109.28 16.5244 109.347 16.6C109.418 16.6729 109.453 16.7797 109.453 16.9204C109.456 17.0949 109.389 17.2394 109.254 17.354C109.121 17.466 108.94 17.522 108.711 17.522Z" fill="white"/>
<path d="M110.975 17.4751V14.7402H111.874C112.087 14.7402 112.263 14.7754 112.401 14.8457C112.539 14.9161 112.641 15.0111 112.706 15.1309C112.774 15.2508 112.808 15.3862 112.808 15.5373C112.808 15.6857 112.775 15.8199 112.71 15.9397C112.645 16.0595 112.543 16.1559 112.405 16.2288C112.267 16.2991 112.09 16.3343 111.874 16.3343H111.303V17.4751H110.975ZM111.303 16.0569H111.866C112.085 16.0569 112.24 16.0113 112.331 15.9202C112.425 15.8264 112.472 15.6988 112.472 15.5373C112.472 15.3732 112.425 15.2456 112.331 15.1544C112.24 15.0606 112.085 15.0137 111.866 15.0137H111.303V16.0569Z" fill="white"/>
<path d="M113.771 17.522C113.61 17.522 113.476 17.4947 113.369 17.44C113.262 17.3853 113.183 17.3124 113.131 17.2212C113.079 17.13 113.053 17.0311 113.053 16.9243C113.053 16.7263 113.128 16.5739 113.279 16.4671C113.43 16.3603 113.636 16.307 113.896 16.307H114.42V16.2835C114.42 16.1142 114.376 15.9866 114.287 15.9006C114.199 15.8121 114.08 15.7678 113.932 15.7678C113.804 15.7678 113.693 15.8003 113.599 15.8655C113.508 15.928 113.451 16.0204 113.428 16.1429H113.092C113.105 16.0022 113.151 15.8837 113.232 15.7873C113.316 15.691 113.418 15.618 113.541 15.5685C113.663 15.5164 113.794 15.4904 113.932 15.4904C114.202 15.4904 114.406 15.5633 114.541 15.7092C114.679 15.8524 114.748 16.0439 114.748 16.2835V17.4751H114.455L114.436 17.1274C114.381 17.2368 114.3 17.3306 114.193 17.4087C114.089 17.4843 113.949 17.522 113.771 17.522ZM113.822 17.2446C113.947 17.2446 114.054 17.2121 114.143 17.147C114.234 17.0818 114.303 16.9972 114.35 16.893C114.397 16.7888 114.42 16.6794 114.42 16.5648V16.5609H113.924C113.731 16.5609 113.594 16.5948 113.514 16.6625C113.435 16.7276 113.396 16.8097 113.396 16.9086C113.396 17.0102 113.433 17.0923 113.506 17.1548C113.581 17.2147 113.687 17.2446 113.822 17.2446Z" fill="white"/>
<path d="M115.24 17.4751V15.5373H115.537L115.565 15.9084C115.625 15.7808 115.716 15.6792 115.838 15.6037C115.961 15.5282 116.112 15.4904 116.291 15.4904V15.8342H116.202C116.087 15.8342 115.982 15.855 115.885 15.8967C115.789 15.9358 115.712 16.0035 115.655 16.0999C115.597 16.1963 115.569 16.3291 115.569 16.4984V17.4751H115.24Z" fill="white"/>
<path d="M116.66 17.4751V14.6621H116.988V16.3538L117.781 15.5373H118.184L117.324 16.4124L118.293 17.4751H117.875L116.988 16.471V17.4751H116.66Z" fill="white"/>
<path d="M118.828 15.1075C118.763 15.1075 118.708 15.0867 118.664 15.045C118.622 15.0007 118.601 14.946 118.601 14.8809C118.601 14.8184 118.622 14.7663 118.664 14.7246C118.708 14.6829 118.763 14.6621 118.828 14.6621C118.89 14.6621 118.944 14.6829 118.988 14.7246C119.032 14.7663 119.054 14.8184 119.054 14.8809C119.054 14.946 119.032 15.0007 118.988 15.045C118.944 15.0867 118.89 15.1075 118.828 15.1075ZM118.664 17.4751V15.5373H118.992V17.4751H118.664Z" fill="white"/>
<path d="M119.563 17.4751V15.5373H119.86L119.888 15.9084C119.948 15.7808 120.039 15.6792 120.161 15.6037C120.284 15.5282 120.435 15.4904 120.614 15.4904V15.8342H120.524C120.41 15.8342 120.304 15.855 120.208 15.8967C120.112 15.9358 120.035 16.0035 119.978 16.0999C119.92 16.1963 119.892 16.3291 119.892 16.4984V17.4751H119.563Z" fill="white"/>
</svg>
